<?xml version="1.0" encoding="UTF-8"?>
<svg xmlns="http://www.w3.org/2000/svg" viewBox="0 0 160 80" fill="none">
  <defs>
    <linearGradient id="bg" x1="0%" y1="0%" x2="0%" y2="100%">
      <stop offset="0%" stop-color="#242428" />
      <stop offset="100%" stop-color="#0a0a0c" />
    </linearGradient>
    <linearGradient id="strap" x1="0%" y1="0%" x2="0%" y2="100%">
      <stop offset="0%" stop-color="#b7e1b5" />
      <stop offset="100%" stop-color="#b7e1b5" stop-opacity="0.6" />
    </linearGradient>
    <radialGradient id="glow" cx="50%" cy="50%" r="50%">
      <stop offset="0%" stop-color="#b7e1b5" stop-opacity="0.4" />
      <stop offset="100%" stop-color="#b7e1b5" stop-opacity="0" />
    </radialGradient>
    <filter id="icon-glow" x="-20%" y="-20%" width="140%" height="140%">
      <feDropShadow dx="0" dy="0" stdDeviation="2" flood-color="#b7e1b5" flood-opacity="0.8"/>
    </filter>
  </defs>
  
  <!-- Base Plaque -->
  <rect x="8" y="16" width="144" height="48" rx="12" fill="url(#bg)" stroke="#FFFFFF" stroke-width="1" stroke-opacity="0.15" />
  
  <!-- Belt Strap -->
  <rect x="8" y="28" width="144" height="24" fill="url(#strap)" />
  <line x1="8" y1="28" x2="152" y2="28" stroke="#FFFFFF" stroke-width="1" opacity="0.3" />
  <line x1="8" y1="52" x2="152" y2="52" stroke="#000000" stroke-width="1" opacity="0.5" />
  
  <!-- Center Championship Buckle Background -->
  <circle cx="80" cy="40" r="22" fill="#121214" stroke="#b7e1b5" stroke-width="2" />
  <circle cx="80" cy="40" r="18" fill="none" stroke="#FFFFFF" stroke-width="1" stroke-opacity="0.1" stroke-dasharray="2 2" />
  <circle cx="80" cy="40" r="22" fill="url(#glow)" />
  
  <!-- Cartoon / Icon -->
  <g transform="translate(64, 24)" color="#b7e1b5" fill="none" filter="url(#icon-glow)">
<path d="M 12 24 C 12 14 16 8 22 8 C 26 8 28 12 28 18 C 28 26 24 30 18 30 C 14 30 12 28 12 24 Z M 12 20 C 8 20 6 18 6 16 C 6 14 8 12 12 12" stroke="currentColor" stroke-width="2" stroke-linejoin="round"/>
  </g>
</svg>